:version 1.10
:name ASF
:units
  mass 1
  length 1
  angle deg
:documentation
  ASF file generated by Kaydara
:root
  axis xyz
  order  tx ty tz rx ry rz
  position 0 0 0
  orientation 0 0 0
:bonedata
  begin
    id 1
    name lfemurDummy
    direction 0.61522 -0.761478 0.204097
    length 5.68318
    axis 0 -0 0 xyz
  end
  begin
    id 2
    name lfemur
    direction 0.34202 -0.939693 -5.84747e-008
    length 16.9147
    axis 0 -0 20 xyz
    dof rx ry rz
    limits( -inf , inf )
( -inf , inf )
( -inf , inf )

  end
  begin
    id 3
    name ltibia
    direction 0.34202 -0.939693 1.20839e-009
    length 18.0532
    axis 0 -0 20 xyz
    dof rz ry rx
    limits( -inf , inf )
( -inf , inf )
( -inf , inf )

  end
  begin
    id 4
    name lfoot
    direction 0.0841971 -0.23133 0.969225
    length 5.23822
    axis -90 7.62852e-016 20 xyz
    dof ry rx rz
    limits( -inf , inf )
( -inf , inf )
( -inf , inf )

  end
  begin
    id 5
    name ltoes
    direction 0 0 0
    length 0
    axis 0 0 0 xyz
    dof rz ry rx
    limits( -inf , inf )
( -inf , inf )
( -inf , inf )

  end
  begin
    id 6
    name rfemurDummy
    direction -0.625247 -0.75382 0.202044
    length 5.74091
    axis 0 -0 0 xyz
  end
  begin
    id 7
    name rfemur
    direction -0.34202 -0.939693 -1.47013e-008
    length 16.4922
    axis 0 -0 -20 xyz
    dof rx ry rz
    limits( -inf , inf )
( -inf , inf )
( -inf , inf )

  end
  begin
    id 8
    name rtibia
    direction -0.34202 -0.939693 -7.74345e-010
    length 18.2421
    axis 0 -0 -20 xyz
    dof rz ry rx
    limits( -inf , inf )
( -inf , inf )
( -inf , inf )

  end
  begin
    id 9
    name rfoot
    direction -0.124331 -0.341598 0.931586
    length 5.45787
    axis -90 -7.62852e-016 -20 xyz
    dof ry rx rz
    limits( -inf , inf )
( -inf , inf )
( -inf , inf )

  end
  begin
    id 10
    name rtoes
    direction 0 0 0
    length 0
    axis 0 0 0 xyz
    dof rz ry rx
    limits( -inf , inf )
( -inf , inf )
( -inf , inf )

  end
  begin
    id 11
    name lowerbackDummy
    direction 0 0 0
    length 0
    axis 0 -0 0 xyz
  end
  begin
    id 12
    name lowerback
    direction -0.0218484 0.994884 -0.0986304
    length 4.45607
    axis 0 -0 0 xyz
    dof rx ry rz
    limits( -inf , inf )
( -inf , inf )
( -inf , inf )

  end
  begin
    id 13
    name upperback
    direction -0.00973057 0.999717 -0.0217111
    length 4.47449
    axis 0 -0 0 xyz
    dof rx ry rz
    limits( -inf , inf )
( -inf , inf )
( -inf , inf )

  end
  begin
    id 14
    name thorax
    direction -0.000928171 0.999699 0.0245198
    length 4.50973
    axis 0 -0 0 xyz
    dof rx ry rz
    limits( -inf , inf )
( -inf , inf )
( -inf , inf )

  end
  begin
    id 15
    name rclavicle
    direction -0.9009 0.425937 -0.0834055
    length 7.28587
    axis 0 -0 0 xyz
    dof rx ry rz
    limits( -inf , inf )
( -inf , inf )
( -inf , inf )

  end
  begin
    id 16
    name rhumerus
    direction -1 -2.23604e-007 -1.42637e-007
    length 13.5704
    axis 180 30 90 xyz
    dof rx ry rz
    limits( -inf , inf )
( -inf , inf )
( -inf , inf )

  end
  begin
    id 17
    name rradius
    direction -1 5.68281e-008 -4.4952e-007
    length 8.06782
    axis 180 30 90 xyz
    dof rz ry rx
    limits( -inf , inf )
( -inf , inf )
( -inf , inf )

  end
  begin
    id 18
    name rwrist
    direction -1 1.51393e-007 1.38143e-007
    length 4.03391
    axis -90 -90 0 xyz
    dof rz rx ry
    limits( -inf , inf )
( -inf , inf )
( -inf , inf )

  end
  begin
    id 19
    name rthumb
    direction 0 0 0
    length 0
    axis 0 0 0 xyz
    dof ry rx rz
    limits( -inf , inf )
( -inf , inf )
( -inf , inf )

  end
  begin
    id 20
    name rhand
    direction -1 -3.34077e-007 -5.59631e-007
    length 1.29744
    axis -90 -90 0 xyz
    dof ry rx rz
    limits( -inf , inf )
( -inf , inf )
( -inf , inf )

  end
  begin
    id 21
    name rfingers
    direction 0 0 0
    length 0
    axis 0 0 0 xyz
    dof rz ry rx
    limits( -inf , inf )
( -inf , inf )
( -inf , inf )

  end
  begin
    id 22
    name lclavicle
    direction 0.940017 0.332249 -0.0773232
    length 8.29589
    axis 0 -0 0 xyz
    dof rx ry rz
    limits( -inf , inf )
( -inf , inf )
( -inf , inf )

  end
  begin
    id 23
    name lhumerus
    direction 1 7.41158e-008 -1.44768e-008
    length 12.0042
    axis 180 -30 -90 xyz
    dof rx ry rz
    limits( -inf , inf )
( -inf , inf )
( -inf , inf )

  end
  begin
    id 24
    name lradius
    direction 1 -1.32972e-007 3.10821e-007
    length 8.1902
    axis 180 -30 -90 xyz
    dof rz ry rx
    limits( -inf , inf )
( -inf , inf )
( -inf , inf )

  end
  begin
    id 25
    name lwrist
    direction 1 3.08957e-007 4.01394e-007
    length 4.09509
    axis -90 90 0 xyz
    dof rz rx ry
    limits( -inf , inf )
( -inf , inf )
( -inf , inf )

  end
  begin
    id 26
    name lthumb
    direction 0 0 0
    length 0
    axis 0 0 0 xyz
    dof ry rx rz
    limits( -inf , inf )
( -inf , inf )
( -inf , inf )

  end
  begin
    id 27
    name lhand
    direction 1 -1.64125e-007 -6.99514e-007
    length 1.37229
    axis -90 90 0 xyz
    dof ry rx rz
    limits( -inf , inf )
( -inf , inf )
( -inf , inf )

  end
  begin
    id 28
    name lfingers
    direction 0 0 0
    length 0
    axis 0 0 0 xyz
    dof rz ry rx
    limits( -inf , inf )
( -inf , inf )
( -inf , inf )

  end
  begin
    id 29
    name lowerneck
    direction -0.030798 0.998024 0.0547665
    length 3.93918
    axis 0 -0 0 xyz
    dof rx ry rz
    limits( -inf , inf )
( -inf , inf )
( -inf , inf )

  end
  begin
    id 30
    name upperneck
    direction 0.0531588 0.996611 -0.0627736
    length 3.95491
    axis 0 -0 0 xyz
    dof rx ry rz
    limits( -inf , inf )
( -inf , inf )
( -inf , inf )

  end
  begin
    id 31
    name head
    direction 0 0 0
    length 0
    axis 0 0 0 xyz
    dof rx ry rz
    limits( -inf , inf )
( -inf , inf )
( -inf , inf )

  end
:hierarchy
  begin
    root lfemurDummy rfemurDummy lowerbackDummy
    lfemurDummy lfemur
    lfemur ltibia
    ltibia lfoot
    lfoot ltoes
    rfemurDummy rfemur
    rfemur rtibia
    rtibia rfoot
    rfoot rtoes
    lowerbackDummy lowerback
    lowerback upperback
    upperback thorax
    thorax rclavicle lclavicle lowerneck
    rclavicle rhumerus
    rhumerus rradius
    rradius rwrist
    rwrist rthumb rhand
    rhand rfingers
    lclavicle lhumerus
    lhumerus lradius
    lradius lwrist
    lwrist lthumb lhand
    lhand lfingers
    lowerneck upperneck
    upperneck head
  end

:SAMPLES-PER-SECOND 30
:FULLY-SPECIFIED
:DEGREES
1
root  4.231266713 40.70222209 2.398022141 -6.776000977 -47.35299683 6.856994629
lowerback  10.59780025 1.466179967 -4.244029999
upperback  4.194469929 1.436769962 -0.3571020067
thorax  -1.66189003 0.6537209749 1.846770048
lowerneck  -6.031300068 8.428959846 -1.908149958
upperneck  8.055390358 11.2567997 2.390870094
head  3.403439999 5.613490105 1.626489997
lclavicle  0 -9.442270133e-015 7.951389973e-016
lhumerus  -2.33265996 -18.73159981 84.58699799
lradius  2.606705051e-031 -2.38200185e-031 137.5789948
lwrist  -1.412450015e-030 -1.765562519e-031 5.126009941
lhand  -1.496451383e-031 -27.76390076 20.11240005
lfingers  90 7.125020027 -90
lthumb  89.89689403 5.08795885 91.16245106
rclavicle  0 -9.442270133e-015 7.951389973e-016
rhumerus  2.160449982 25.51199913 -80.87979889
rradius  -2.635406646e-031 2.350207618e-031 138.2740021
rwrist  0 -0 -9.729100227
rhand  -7.920061211e-032 -33.2840004 9.303460121
rfingers  -90 -7.125020027 -90
rthumb  -92.93752616 -24.25625642 -97.11982154
rfemur  -17.5237999 8.640500069 6.873479843
rtibia  -0 0 61.7322998
rfoot  -4.421772073e-032 -3.41802001 -6.180510044
rtoes  5.373923086 19.29304026 -105.8922705
lfemur  -21.9314003 -1.186339974 -11.18869972
ltibia  -0 0 45.41019821
lfoot  8.82785515e-032 0.1779009998 -3.580650091
ltoes  -4.250644065 -19.5611806 -102.515957
2
root  4.231266713 40.70222209 2.398022141 -6.776000977 -47.35299683 6.856994629
lowerback  10.59780025 1.466179967 -4.244029999
upperback  4.194469929 1.436769962 -0.3571020067
thorax  -1.66189003 0.6537209749 1.846770048
lowerneck  -6.031300068 8.428959846 -1.908149958
upperneck  8.055390358 11.2567997 2.390870094
head  3.403439999 5.613490105 1.626489997
lclavicle  0 -9.442270133e-015 7.951389973e-016
lhumerus  -2.33265996 -18.73159981 84.58699799
lradius  2.606705051e-031 -2.38200185e-031 137.5789948
lwrist  -1.412450015e-030 -1.765562519e-031 5.126009941
lhand  -1.496451383e-031 -27.76390076 20.11240005
lfingers  90 7.125020027 -90
lthumb  89.89689403 5.08795885 91.16245106
rclavicle  0 -9.442270133e-015 7.951389973e-016
rhumerus  2.160449982 25.51199913 -80.87979889
rradius  -2.635406646e-031 2.350207618e-031 138.2740021
rwrist  0 -0 -9.729100227
rhand  -7.920061211e-032 -33.2840004 9.303460121
rfingers  -90 -7.125020027 -90
rthumb  -92.93752616 -24.25625642 -97.11982154
rfemur  -17.5237999 8.640500069 6.873479843
rtibia  -0 0 61.7322998
rfoot  -4.421772073e-032 -3.41802001 -6.180510044
rtoes  5.373923086 19.29304026 -105.8922705
lfemur  -21.9314003 -1.186339974 -11.18869972
ltibia  -0 0 45.41019821
lfoot  8.82785515e-032 0.1779009998 -3.580650091
ltoes  -4.250644065 -19.5611806 -102.515957
3
root  4.122111178 40.8259985 2.35660001 -6.669006348 -45.55099487 6.734008789
lowerback  10.40289974 1.45776999 -4.15199995
upperback  4.111440182 1.447209954 -0.4053069949
thorax  -1.639219999 0.6631919742 1.746590018
lowerneck  -6.13451004 8.081879616 -2.216020107
upperneck  8.537079811 10.7809 2.84423995
head  3.559720039 5.383259773 1.830139995
lclavicle  0 -9.442270133e-015 7.951389973e-016
lhumerus  -1.944039941 -18.96629906 84.25610352
lradius  2.574037014e-031 -2.417266533e-031 136.798996
lwrist  -7.062250077e-031 -0 5.630300045
lhand  -1.496451383e-031 -27.76390076 20.11240005
lfingers  90 7.125020027 -90
lthumb  89.89689403 5.08795885 91.16245106
rclavicle  0 -9.442270133e-015 7.951389973e-016
rhumerus  1.933040023 25.10740089 -80.98339844
rradius  -2.630930463e-031 2.355217386e-031 138.1649933
rwrist  1.412450015e-030 -1.765562519e-031 -9.528770447
rhand  -7.920061211e-032 -33.2840004 9.303460121
rfingers  -90 -7.125020027 -90
rthumb  -92.93752616 -24.25625642 -97.11982154
rfemur  -17.86339951 8.439629555 6.777919769
rtibia  -0 0 62.47779846
rfoot  -4.41647524e-032 -1.954329967 -4.675179958
rtoes  5.373923086 19.29304026 -105.8922705
lfemur  -22.00550079 -1.472849965 -11.14780045
ltibia  -0 0 44.57400131
lfoot  8.832368454e-032 1.840360045 -4.347469807
ltoes  -4.250644065 -19.5611806 -102.515957
4
root  4.006155645 40.92688973 2.337377841 -6.802978516 -43.70199585 6.833007813
lowerback  10.21689987 1.484779954 -4.251029968
upperback  4.070040226 1.487310052 -0.3871780038
thorax  -1.58536005 0.6840209961 1.819339991
lowerneck  -6.382150173 7.726490021 -2.715159893
upperneck  9.063920021 10.31999969 3.242039919
head  3.758179903 5.152200222 2.060930014
lclavicle  0 -9.442270133e-015 7.951389973e-016
lhumerus  -1.605730057 -19.17830086 84.1529007
lradius  2.539565267e-031 -2.453457212e-031 135.9880066
lwrist  -7.062250077e-031 -1.765562519e-031 5.819580078
lhand  -1.496451383e-031 -27.76390076 20.11240005
lfingers  90 7.125020027 -90
lthumb  89.89689403 5.08795885 91.16245106
rclavicle  0 -9.442270133e-015 7.951389973e-016
rhumerus  1.884389997 24.86689949 -80.85739899
rradius  -2.627186961e-031 2.359392445e-031 138.0740051
rwrist  1.412450015e-030 -0 -9.098349571
rhand  -7.920061211e-032 -33.2840004 9.303460121
rfingers  -90 -7.125020027 -90
rthumb  -92.93752616 -24.25625642 -97.11982154
rfemur  -17.93250084 8.346119881 6.499849796
rtibia  -0 0 63.06719971
rfoot  -4.414810724e-032 -1.159780025 -3.321049929
rtoes  5.373923086 19.29304026 -105.8922705
lfemur  -21.89480019 -1.917129993 -11.32129955
ltibia  -0 0 43.80189896
lfoot  4.420621682e-032 3.15854001 -4.362239838
ltoes  -4.250644065 -19.5611806 -102.515957
5
root  3.883022398 41.01666728 2.341422134 -7.151977539 -41.79800415 7.174987793
lowerback  10.04769993 1.480350018 -4.488299847
upperback  4.015140057 1.470600009 -0.4126679897
thorax  -1.552870035 0.6762530208 1.930660009
lowerneck  -6.580180168 7.395969868 -3.07565999
upperneck  9.573200226 9.896019936 3.448270082
head  3.963619947 4.934720039 2.205970049
lclavicle  0 -9.442270133e-015 7.951389973e-016
lhumerus  -1.37037003 -19.37260056 83.93250275
lradius  2.51221816e-031 -2.481451985e-031 135.3529968
lwrist  0 -0 5.815340042
lhand  -1.496451383e-031 -27.76390076 20.11240005
lfingers  90 7.125020027 -90
lthumb  89.89689403 5.08795885 91.16245106
rclavicle  0 -9.442270133e-015 7.951389973e-016
rhumerus  1.844079971 24.90379906 -80.87519836
rradius  -2.617198016e-031 2.370468009e-031 137.8320007
rwrist  7.062250077e-031 -0 -8.466659546
rhand  -7.920061211e-032 -33.2840004 9.303460121
rfingers  -90 -7.125020027 -90
rthumb  -92.93752616 -24.25625642 -97.11982154
rfemur  -17.70009995 8.400950432 6.028279781
rtibia  -0 0 63.45119858
rfoot  -4.414276419e-032 -0.7419639826 -2.8292799
rtoes  5.373923086 19.29304026 -105.8922705
lfemur  -21.7208004 -2.501660109 -11.77939987
ltibia  -0 0 43.11349869
lfoot  4.422941753e-032 3.662950039 -4.066030025
ltoes  -4.250644065 -19.5611806 -102.515957
6
root  3.765200067 41.06911186 2.33346665 -7.219970703 -39.88400269 7.166015625
lowerback  9.933119774 1.408159971 -4.483109951
upperback  3.919130087 1.386199951 -0.3427979946
thorax  -1.585690022 0.6383069754 2.010950089
lowerneck  -6.65625 7.131480217 -3.464900017
upperneck  9.91615963 9.571439743 3.564909935
head  4.088940144 4.762179852 2.316479921
lclavicle  0 -9.442270133e-015 7.951389973e-016
lhumerus  -1.09284997 -19.40040016 83.64019775
lradius  2.48587653e-031 -2.507840089e-031 134.7480011
lwrist  0 -0 5.830729961
lhand  -1.496451383e-031 -27.76390076 20.11240005
lfingers  90 7.125020027 -90
lthumb  89.89689403 5.08795885 91.16245106
rclavicle  0 -9.442270133e-015 7.951389973e-016
rhumerus  2.044589996 25.25460052 -80.9865036
rradius  -2.600585637e-031 2.388681306e-031 137.4320068
rwrist  1.412450015e-030 -0 -7.947770119
rhand  -7.920061211e-032 -33.2840004 9.303460121
rfingers  -90 -7.125020027 -90
rthumb  -92.93752616 -24.25625642 -97.11982154
rfemur  -17.41609955 8.736370087 5.933020115
rtibia  -0 0 63.68500137
rfoot  -4.415143765e-032 -1.356570005 -3.501369953
rtoes  5.373923086 19.29304026 -105.8922705
lfemur  -21.65730095 -2.932529926 -12.02639961
ltibia  -0 0 42.5121994
lfoot  4.421810285e-032 3.426300049 -3.802390099
ltoes  -4.250644065 -19.5611806 -102.515957
